<svg width="1280" height="760" viewBox="0 0 1280 760" fill="none" xmlns="http://www.w3.org/2000/svg">
  <rect width="1280" height="760" rx="28" fill="#14213D"/>
  <rect x="18" y="18" width="1244" height="724" rx="24" fill="#FFFDF8"/>
  <rect x="18" y="18" width="1244" height="68" rx="24" fill="#14213D"/>
  <rect x="18" y="64" width="1244" height="22" fill="#14213D"/>
  <circle cx="58" cy="52" r="8" fill="#B86B4B"/>
  <circle cx="84" cy="52" r="8" fill="#E6C98F"/>
  <circle cx="110" cy="52" r="8" fill="#7A8463"/>
  <text x="150" y="58" fill="#F8F3EA" font-family="Inter, Arial, sans-serif" font-size="19" font-weight="700">Visora owner dashboard</text>
  <text x="1058" y="57" fill="#E6C98F" font-family="Inter, Arial, sans-serif" font-size="14" font-weight="700">Today</text>

  <rect x="46" y="116" width="160" height="596" rx="18" fill="#F8F3EA" stroke="#D8CFC1"/>
  <rect x="70" y="148" width="96" height="18" rx="9" fill="#14213D"/>
  <rect x="70" y="194" width="112" height="42" rx="12" fill="#14213D"/>
  <text x="92" y="220" fill="#FFFDF8" font-family="Inter, Arial, sans-serif" font-size="14" font-weight="700">Overview</text>
  <rect x="70" y="258" width="104" height="14" rx="7" fill="#D8CFC1"/>
  <rect x="70" y="300" width="118" height="14" rx="7" fill="#D8CFC1"/>
  <rect x="70" y="342" width="94" height="14" rx="7" fill="#D8CFC1"/>
  <rect x="70" y="384" width="110" height="14" rx="7" fill="#D8CFC1"/>
  <rect x="70" y="426" width="86" height="14" rx="7" fill="#D8CFC1"/>
  <rect x="70" y="654" width="92" height="28" rx="14" fill="#E6C98F"/>

  <text x="238" y="148" fill="#14213D" font-family="Inter, Arial, sans-serif" font-size="34" font-weight="800">Local visibility board</text>
  <text x="240" y="181" fill="#5F6673" font-family="Inter, Arial, sans-serif" font-size="17">Profile, reviews, listings, rank movement, and lead recovery in one owner view.</text>

  <rect x="238" y="218" width="218" height="134" rx="18" fill="#F8F3EA" stroke="#D8CFC1"/>
  <text x="264" y="255" fill="#5F6673" font-family="Inter, Arial, sans-serif" font-size="14" font-weight="700">PROFILE FIXES</text>
  <text x="264" y="304" fill="#14213D" font-family="Inter, Arial, sans-serif" font-size="48" font-weight="800">8</text>
  <text x="324" y="302" fill="#7A8463" font-family="Inter, Arial, sans-serif" font-size="15" font-weight="700">ready to review</text>

  <rect x="480" y="218" width="218" height="134" rx="18" fill="#F8F3EA" stroke="#D8CFC1"/>
  <text x="506" y="255" fill="#5F6673" font-family="Inter, Arial, sans-serif" font-size="14" font-weight="700">NEW REVIEWS</text>
  <text x="506" y="304" fill="#14213D" font-family="Inter, Arial, sans-serif" font-size="48" font-weight="800">12</text>
  <text x="574" y="302" fill="#B86B4B" font-family="Inter, Arial, sans-serif" font-size="15" font-weight="700">need attention</text>

  <rect x="722" y="218" width="218" height="134" rx="18" fill="#F8F3EA" stroke="#D8CFC1"/>
  <text x="748" y="255" fill="#5F6673" font-family="Inter, Arial, sans-serif" font-size="14" font-weight="700">LISTINGS</text>
  <text x="748" y="304" fill="#14213D" font-family="Inter, Arial, sans-serif" font-size="48" font-weight="800">4</text>
  <text x="808" y="302" fill="#7A8463" font-family="Inter, Arial, sans-serif" font-size="15" font-weight="700">mismatches</text>

  <rect x="964" y="218" width="236" height="134" rx="18" fill="#F8F3EA" stroke="#D8CFC1"/>
  <text x="990" y="255" fill="#5F6673" font-family="Inter, Arial, sans-serif" font-size="14" font-weight="700">LEAD RECOVERY</text>
  <text x="990" y="304" fill="#14213D" font-family="Inter, Arial, sans-serif" font-size="48" font-weight="800">3</text>
  <text x="1050" y="302" fill="#B86B4B" font-family="Inter, Arial, sans-serif" font-size="15" font-weight="700">missed calls</text>

  <rect x="238" y="384" width="548" height="300" rx="20" fill="#FFFDF8" stroke="#D8CFC1"/>
  <text x="268" y="426" fill="#14213D" font-family="Inter, Arial, sans-serif" font-size="21" font-weight="800">Visibility movement</text>
  <text x="268" y="455" fill="#5F6673" font-family="Inter, Arial, sans-serif" font-size="14">Roof repair, emergency HVAC, med spa consultation, and local service terms.</text>
  <line x1="280" y1="624" x2="742" y2="624" stroke="#D8CFC1"/>
  <line x1="280" y1="570" x2="742" y2="570" stroke="#D8CFC1"/>
  <line x1="280" y1="516" x2="742" y2="516" stroke="#D8CFC1"/>
  <path d="M286 612 C338 574 371 590 421 546 C472 500 519 526 566 485 C617 441 674 466 738 420" stroke="#B86B4B" stroke-width="6" stroke-linecap="round"/>
  <path d="M286 640 C340 624 382 632 431 600 C475 572 522 586 570 554 C626 516 682 528 738 494" stroke="#7A8463" stroke-width="5" stroke-linecap="round" opacity="0.75"/>

  <rect x="820" y="384" width="380" height="300" rx="20" fill="#FFFDF8" stroke="#D8CFC1"/>
  <text x="850" y="426" fill="#14213D" font-family="Inter, Arial, sans-serif" font-size="21" font-weight="800">Next practical actions</text>
  <rect x="850" y="462" width="310" height="52" rx="14" fill="#F8F3EA"/>
  <circle cx="876" cy="488" r="8" fill="#B86B4B"/>
  <text x="898" y="492" fill="#14213D" font-family="Inter, Arial, sans-serif" font-size="15" font-weight="700">Draft storm-season Google post</text>
  <rect x="850" y="532" width="310" height="52" rx="14" fill="#F8F3EA"/>
  <circle cx="876" cy="558" r="8" fill="#7A8463"/>
  <text x="898" y="562" fill="#14213D" font-family="Inter, Arial, sans-serif" font-size="15" font-weight="700">Request recent job photos</text>
  <rect x="850" y="602" width="310" height="52" rx="14" fill="#F8F3EA"/>
  <circle cx="876" cy="628" r="8" fill="#E6C98F"/>
  <text x="898" y="632" fill="#14213D" font-family="Inter, Arial, sans-serif" font-size="15" font-weight="700">Follow up with missed caller</text>
</svg>
